<mxfile host="app.diagrams.net" modified="2021-03-13T18:42:56.900Z" agent="5.0 (Windows NT 10.0; Win64; x64) AppleWebKit/537.36 (KHTML, like Gecko) Chrome/89.0.4389.82 Safari/537.36" etag="06eXhg6NRb2C4_juY5S7" version="14.4.8" type="github">
  <diagram id="vL8at-JJaaC0RooIvi5I" name="Page-1">
    <mxGraphModel dx="1864" dy="529" grid="1" gridSize="10" guides="1" tooltips="1" connect="1" arrows="1" fold="1" page="1" pageScale="1" pageWidth="850" pageHeight="1100" math="0" shadow="0">
      <root>
        <mxCell id="0" />
        <mxCell id="1" parent="0" />
        <mxCell id="p7wTmUrF9Ft5EsYf6udC-5" style="edgeStyle=orthogonalEdgeStyle;rounded=0;orthogonalLoop=1;jettySize=auto;html=1;spacing=2;" edge="1" parent="1" source="p7wTmUrF9Ft5EsYf6udC-1" target="p7wTmUrF9Ft5EsYf6udC-3">
          <mxGeometry relative="1" as="geometry" />
        </mxCell>
        <mxCell id="p7wTmUrF9Ft5EsYf6udC-1" value="getNthFib(5)" style="text;html=1;strokeColor=none;fillColor=none;align=center;verticalAlign=middle;whiteSpace=wrap;rounded=0;spacing=2;" vertex="1" parent="1">
          <mxGeometry x="390" y="60" width="120" height="50" as="geometry" />
        </mxCell>
        <mxCell id="p7wTmUrF9Ft5EsYf6udC-6" style="edgeStyle=orthogonalEdgeStyle;rounded=0;orthogonalLoop=1;jettySize=auto;html=1;exitX=0.25;exitY=1;exitDx=0;exitDy=0;entryX=0.5;entryY=0;entryDx=0;entryDy=0;spacing=2;" edge="1" parent="1" source="p7wTmUrF9Ft5EsYf6udC-3" target="p7wTmUrF9Ft5EsYf6udC-4">
          <mxGeometry relative="1" as="geometry" />
        </mxCell>
        <mxCell id="p7wTmUrF9Ft5EsYf6udC-8" style="edgeStyle=orthogonalEdgeStyle;rounded=0;orthogonalLoop=1;jettySize=auto;html=1;exitX=0.75;exitY=1;exitDx=0;exitDy=0;entryX=0.5;entryY=0;entryDx=0;entryDy=0;spacing=2;" edge="1" parent="1" source="p7wTmUrF9Ft5EsYf6udC-3" target="p7wTmUrF9Ft5EsYf6udC-7">
          <mxGeometry relative="1" as="geometry" />
        </mxCell>
        <mxCell id="p7wTmUrF9Ft5EsYf6udC-3" value="getNthFib(4) + getNthFib(3)" style="text;html=1;strokeColor=none;fillColor=none;align=center;verticalAlign=middle;whiteSpace=wrap;rounded=0;spacing=2;" vertex="1" parent="1">
          <mxGeometry x="340" y="140" width="220" height="50" as="geometry" />
        </mxCell>
        <mxCell id="p7wTmUrF9Ft5EsYf6udC-10" style="edgeStyle=orthogonalEdgeStyle;rounded=0;orthogonalLoop=1;jettySize=auto;html=1;exitX=0.25;exitY=1;exitDx=0;exitDy=0;entryX=0.5;entryY=0;entryDx=0;entryDy=0;" edge="1" parent="1" source="p7wTmUrF9Ft5EsYf6udC-4" target="p7wTmUrF9Ft5EsYf6udC-9">
          <mxGeometry relative="1" as="geometry" />
        </mxCell>
        <mxCell id="p7wTmUrF9Ft5EsYf6udC-12" style="edgeStyle=orthogonalEdgeStyle;rounded=0;orthogonalLoop=1;jettySize=auto;html=1;exitX=0.75;exitY=1;exitDx=0;exitDy=0;" edge="1" parent="1" source="p7wTmUrF9Ft5EsYf6udC-4" target="p7wTmUrF9Ft5EsYf6udC-11">
          <mxGeometry relative="1" as="geometry" />
        </mxCell>
        <mxCell id="p7wTmUrF9Ft5EsYf6udC-4" value="getNthFib(3) + getNthFib(2)" style="text;html=1;strokeColor=none;fillColor=none;align=center;verticalAlign=middle;whiteSpace=wrap;rounded=0;" vertex="1" parent="1">
          <mxGeometry x="150" y="240" width="220" height="50" as="geometry" />
        </mxCell>
        <mxCell id="p7wTmUrF9Ft5EsYf6udC-14" style="edgeStyle=orthogonalEdgeStyle;rounded=0;orthogonalLoop=1;jettySize=auto;html=1;exitX=0.25;exitY=1;exitDx=0;exitDy=0;entryX=0.5;entryY=0;entryDx=0;entryDy=0;" edge="1" parent="1" source="p7wTmUrF9Ft5EsYf6udC-7" target="p7wTmUrF9Ft5EsYf6udC-13">
          <mxGeometry relative="1" as="geometry">
            <Array as="points">
              <mxPoint x="590" y="310" />
              <mxPoint x="560" y="310" />
            </Array>
          </mxGeometry>
        </mxCell>
        <mxCell id="p7wTmUrF9Ft5EsYf6udC-16" style="edgeStyle=orthogonalEdgeStyle;rounded=0;orthogonalLoop=1;jettySize=auto;html=1;exitX=0.75;exitY=1;exitDx=0;exitDy=0;entryX=0.5;entryY=0;entryDx=0;entryDy=0;" edge="1" parent="1" source="p7wTmUrF9Ft5EsYf6udC-7" target="p7wTmUrF9Ft5EsYf6udC-15">
          <mxGeometry relative="1" as="geometry" />
        </mxCell>
        <mxCell id="p7wTmUrF9Ft5EsYf6udC-7" value="getNthFib(2) + getNthFib(1)" style="text;html=1;strokeColor=none;fillColor=none;align=center;verticalAlign=middle;whiteSpace=wrap;rounded=0;" vertex="1" parent="1">
          <mxGeometry x="535" y="230" width="220" height="50" as="geometry" />
        </mxCell>
        <mxCell id="p7wTmUrF9Ft5EsYf6udC-19" style="edgeStyle=orthogonalEdgeStyle;rounded=0;orthogonalLoop=1;jettySize=auto;html=1;exitX=0.25;exitY=1;exitDx=0;exitDy=0;entryX=0.5;entryY=0;entryDx=0;entryDy=0;" edge="1" parent="1" source="p7wTmUrF9Ft5EsYf6udC-9" target="p7wTmUrF9Ft5EsYf6udC-17">
          <mxGeometry relative="1" as="geometry" />
        </mxCell>
        <mxCell id="p7wTmUrF9Ft5EsYf6udC-20" style="edgeStyle=orthogonalEdgeStyle;rounded=0;orthogonalLoop=1;jettySize=auto;html=1;exitX=0.75;exitY=1;exitDx=0;exitDy=0;entryX=0.5;entryY=0;entryDx=0;entryDy=0;" edge="1" parent="1" source="p7wTmUrF9Ft5EsYf6udC-9" target="p7wTmUrF9Ft5EsYf6udC-18">
          <mxGeometry relative="1" as="geometry" />
        </mxCell>
        <mxCell id="p7wTmUrF9Ft5EsYf6udC-9" value="getNthFib(2) + getNthFib(1)" style="text;html=1;strokeColor=none;fillColor=none;align=center;verticalAlign=middle;whiteSpace=wrap;rounded=0;" vertex="1" parent="1">
          <mxGeometry x="50" y="340" width="220" height="50" as="geometry" />
        </mxCell>
        <mxCell id="p7wTmUrF9Ft5EsYf6udC-11" value="return 1" style="text;html=1;strokeColor=none;fillColor=none;align=center;verticalAlign=middle;whiteSpace=wrap;rounded=0;" vertex="1" parent="1">
          <mxGeometry x="250" y="340" width="220" height="50" as="geometry" />
        </mxCell>
        <mxCell id="p7wTmUrF9Ft5EsYf6udC-13" value="return 1" style="text;html=1;strokeColor=none;fillColor=none;align=center;verticalAlign=middle;whiteSpace=wrap;rounded=0;" vertex="1" parent="1">
          <mxGeometry x="450" y="340" width="220" height="50" as="geometry" />
        </mxCell>
        <mxCell id="p7wTmUrF9Ft5EsYf6udC-15" value="return 0" style="text;html=1;strokeColor=none;fillColor=none;align=center;verticalAlign=middle;whiteSpace=wrap;rounded=0;" vertex="1" parent="1">
          <mxGeometry x="630" y="340" width="220" height="50" as="geometry" />
        </mxCell>
        <mxCell id="p7wTmUrF9Ft5EsYf6udC-17" value="return 1" style="text;html=1;strokeColor=none;fillColor=none;align=center;verticalAlign=middle;whiteSpace=wrap;rounded=0;" vertex="1" parent="1">
          <mxGeometry x="-40" y="450" width="220" height="50" as="geometry" />
        </mxCell>
        <mxCell id="p7wTmUrF9Ft5EsYf6udC-18" value="return 0" style="text;html=1;strokeColor=none;fillColor=none;align=center;verticalAlign=middle;whiteSpace=wrap;rounded=0;" vertex="1" parent="1">
          <mxGeometry x="140" y="450" width="220" height="50" as="geometry" />
        </mxCell>
        <mxCell id="p7wTmUrF9Ft5EsYf6udC-21" value="Text" style="text;html=1;strokeColor=none;fillColor=none;align=center;verticalAlign=middle;whiteSpace=wrap;rounded=0;" vertex="1" parent="1">
          <mxGeometry x="430" y="290" width="40" height="20" as="geometry" />
        </mxCell>
        <mxCell id="p7wTmUrF9Ft5EsYf6udC-22" value="1" style="text;html=1;strokeColor=none;fillColor=none;align=center;verticalAlign=middle;whiteSpace=wrap;rounded=0;" vertex="1" parent="1">
          <mxGeometry x="560" y="180" width="40" height="20" as="geometry" />
        </mxCell>
        <mxCell id="p7wTmUrF9Ft5EsYf6udC-23" value="1" style="text;html=1;strokeColor=none;fillColor=none;align=center;verticalAlign=middle;whiteSpace=wrap;rounded=0;" vertex="1" parent="1">
          <mxGeometry x="150" y="290" width="40" height="20" as="geometry" />
        </mxCell>
        <mxCell id="p7wTmUrF9Ft5EsYf6udC-24" value="2" style="text;html=1;strokeColor=none;fillColor=none;align=center;verticalAlign=middle;whiteSpace=wrap;rounded=0;" vertex="1" parent="1">
          <mxGeometry x="300" y="180" width="40" height="20" as="geometry" />
        </mxCell>
      </root>
    </mxGraphModel>
  </diagram>
</mxfile>
